<svg width="410" height="404" xmlns="http://www.w3.org/2000/svg" fill="none" viewBox="0 0 410 404" >
    <path stroke="null" id="svg_11" fill="url(#svg_20)" d="m94.622,24.13745l282.54219,129.15783c5.76579,3.63338 69.36775,38.98504 -2.4878,89.56939l-278.46046,157.36789c-6.21924,4.10319 -13.7983,-1.93496 -12.56881,-10.01327l27.12913,-178.24648c9.99709,-12.84156 -1.88627,-5.66907 -0.01946,-3.43459l-90.91791,-138.45727c-1.31719,-8.03405 -73.78598,-115.11345 74.78312,-45.9435z"/>
    <path stroke="null" id="svg_16" d="m275.56246,110.10588l120.18414,-28.51122l-132.94637,116.99407l128.93523,96.99636l-142.4652,15.79032c-183.70231,140.97902 -172.75133,-391.56152 29.97773,-203.75708" opacity="NaN" fill="url(#svg_18)"/>
    <defs>
     <linearGradient spreadMethod="pad" y2="0" x2="1" y1="0" x1="0" id="svg_18">
      <stop offset="0.01172" stop-opacity="0.97656" stop-color="#59b993"/>
      <stop stop-opacity="0.98438" stop-color="#066a7e" offset="1"/>
     </linearGradient>
     <linearGradient spreadMethod="pad" y2="1" x2="0" y1="1" x1="1" id="svg_20">
      <stop offset="0.01172" stop-opacity="0.98438" stop-color="#06d169"/>
      <stop stop-opacity="0.98828" stop-color="#29c4f4" offset="1"/>
     </linearGradient>
    </defs>

   </svg>